# This file uses centimeters as units for non-parametric coordinates.

mtllib boundary.mtl
g default
v -0.125000 0.000000 0.500000
v 0.125000 0.000000 0.500000
v -0.125000 0.000000 -0.500000
v 0.125000 0.000000 -0.500000
vt 0.000000 0.000000
vt 1.000000 0.000000
vt 0.000000 4.000000
vt 1.000000 4.000000
vn 0.000000 1.000000 0.000000
vn 0.000000 1.000000 0.000000
vn 0.000000 1.000000 0.000000
vn 0.000000 1.000000 0.000000
vn 0.000000 1.000000 0.000000
vn 0.000000 1.000000 0.000000
s off
g boundary2:pPlane1
usemtl boundary2:lambert2SG
f 1/1/1 2/2/2 3/3/3
f 3/3/4 2/2/5 4/4/6
